<svg xmlns="http://www.w3.org/2000/svg" width="56" height="56" viewBox="0 0 56 56"><g id="category-samples" fill="none" fill-rule="evenodd" stroke="none" stroke-width="1"><path id="icon" fill="#DFDFDF" fill-rule="nonzero" d="M28,6 C40.7025492,6 51,16.2974508 51,29 C51,41.7025492 40.7025492,52 28,52 C15.2974508,52 5,41.7025492 5,29 C5,16.2974508 15.2974508,6 28,6 Z M28,10 C17.5065898,10 9,18.5065898 9,29 C9,39.4934102 17.5065898,48 28,48 C38.4934102,48 47,39.4934102 47,29 C47,18.5065898 38.4934102,10 28,10 Z M32.9299492,21.1724312 C32.942196,21.1792542 32.9543368,21.1862659 32.9663671,21.1934638 L33.0096285,21.2193476 C33.6571199,21.6067498 33.8798354,22.4383931 33.512611,23.0975379 L26.1568346,36.300696 C25.7907884,36.957726 24.9614212,37.193615 24.3043912,36.8275688 C24.2921443,36.8207458 24.2800036,36.8137341 24.2679732,36.8065362 L24.2247119,36.7806524 C23.5772204,36.3932502 23.354505,35.5616069 23.7217294,34.9024621 L31.0775057,21.699304 C31.4435519,21.042274 32.2729191,20.806385 32.9299492,21.1724312 Z M19.181296,22.7112675 C19.5903608,22.7112675 19.9215085,22.8323867 20.1747391,23.0746249 C20.4279696,23.3168632 20.5545849,23.6095678 20.5545849,23.9527386 C20.5545849,24.3564691 20.4377093,24.6895467 20.203958,24.9519715 C19.8728103,25.2345828 19.4442662,25.5878469 18.9183257,26.0117638 C18.3923853,26.4356808 17.8567052,26.8595977 17.3112855,27.2835147 C16.8048243,27.6872451 16.3081027,28.0859289 15.8211208,28.4795661 C15.3341389,28.8732033 14.9348138,29.2012343 14.6231454,29.463659 L20.2623958,33.7936679 L20.3208336,33.8239477 C20.41823,34.0056264 20.5010169,34.1772118 20.5691944,34.338704 C20.6373719,34.5001962 20.6714606,34.6616884 20.6714606,34.8231805 C20.6714606,35.1663514 20.5448453,35.4540093 20.2916147,35.6861543 C20.0383841,35.9182993 19.7072364,36.0343718 19.2981716,36.0343718 C19.0254618,36.0343718 18.7624915,35.9839055 18.5092609,35.8829729 C18.0612376,35.5599886 17.5791255,35.1915846 17.0629247,34.7777609 C16.5467239,34.3639372 16.0159136,33.9450668 15.4704939,33.5211499 C14.7887192,32.9963003 14.0923351,32.4613575 13.3813415,31.9163214 C12.6703479,31.3712853 12.0421413,30.8969021 11.4967215,30.4931716 C11.1655738,30.1500008 11,29.8169232 11,29.4939388 C11,29.0700219 11.2240117,28.686478 11.672035,28.3433071 L11.6428161,28.3433071 C11.7207332,28.2827475 11.9350053,28.1111621 12.2856322,27.8285508 C12.6362592,27.5459395 13.045324,27.2128619 13.5128266,26.829318 C13.9803292,26.4457741 14.4819206,26.036997 15.0176007,25.6029868 C15.5532808,25.1689766 16.0548722,24.7601995 16.5223748,24.3766556 C16.9898774,23.9931117 17.3940724,23.6650807 17.7349597,23.3925627 C18.0758471,23.1200446 18.2949889,22.9535058 18.3923853,22.8929462 C18.7040537,22.7718271 18.9670239,22.7112675 19.181296,22.7112675 Z M36.818704,22.7112675 C37.0329761,22.7112675 37.2862067,22.7617339 37.5783958,22.8626665 C37.6952715,22.923226 37.977721,23.1351845 38.4257443,23.4985419 C38.8737677,23.8618993 39.3899685,24.275723 39.9743468,24.740013 C40.558725,25.204303 41.1577128,25.6938261 41.77131,26.2085824 C42.3849072,26.7233387 42.9157175,27.1623956 43.3637408,27.525753 L44.3864028,28.3433071 L44.3571839,28.3433071 C44.785728,28.7066645 45,29.0902084 45,29.4939388 C45,29.8169232 44.8539054,30.1399075 44.5617163,30.4628919 L41.1138844,33.1275127 L37.519958,35.8526931 C37.2472481,35.9738123 36.9745382,36.0343718 36.7018284,36.0343718 C36.3122428,36.0343718 35.985965,35.9182993 35.7229947,35.6861543 C35.4600245,35.4540093 35.3285394,35.1663514 35.3285394,34.8231805 C35.3285394,34.5203827 35.4454151,34.1973984 35.6791664,33.8542275 L41.3476357,29.463659 L38.6887145,27.2835147 C38.1627741,26.8595977 37.6319638,26.4306342 37.0962837,25.9966239 C36.5606036,25.5626137 36.1369294,25.204303 35.8252609,24.9216917 C35.5720304,24.6390804 35.4454151,24.316096 35.4454151,23.9527386 C35.4454151,23.6095678 35.5769002,23.3168632 35.8398704,23.0746249 C36.1028406,22.8323867 36.4291185,22.7112675 36.818704,22.7112675 Z"/></g></svg>